<svg width="1007" height="1140" viewBox="0 0 1007 1140" fill="none" xmlns="http://www.w3.org/2000/svg">
<path d="M46.8372 304.312C46.8372 284.33 50.7745 264.545 58.4242 246.085C66.0741 227.624 77.2867 210.85 91.4217 196.721C105.557 182.592 122.338 171.385 140.806 163.738C159.274 156.092 179.068 152.156 199.058 152.156V173.319C181.849 173.319 164.807 176.707 148.908 183.29C133.008 189.873 118.562 199.522 106.392 211.686C94.2233 223.85 84.5704 238.29 77.9844 254.182C71.3986 270.077 68.009 287.109 68.009 304.312H46.8372Z" fill="white"/>
<path d="M70.2559 304.312C70.2559 270.166 83.826 237.42 107.981 213.274C132.136 189.129 164.898 175.565 199.058 175.565V194.286C169.865 194.286 141.867 205.878 121.225 226.512C100.582 247.146 88.9849 275.131 88.9849 304.312H70.2559Z" fill="white"/>
<path d="M46.8372 304.312C66.827 304.312 86.6214 308.247 105.09 315.895C123.558 323.54 140.339 334.748 154.474 348.877C168.609 363.007 179.821 379.779 187.471 398.242C195.121 416.702 199.058 436.487 199.058 456.468H177.886C177.886 439.265 174.497 422.233 167.911 406.339C161.325 390.447 151.672 376.006 139.503 363.843C127.334 351.677 112.887 342.028 96.9876 335.446C81.0878 328.863 64.0468 325.476 46.8372 325.476V304.312Z" fill="white"/>
<path d="M46.8372 327.721C80.9976 327.721 113.759 341.286 137.914 365.43C162.069 389.576 175.639 422.322 175.639 456.468H156.91C156.91 427.287 145.313 399.302 124.671 378.667C104.028 358.035 76.0303 346.443 46.8372 346.443V327.721Z" fill="white"/>
<path d="M503.5 912.936C523.49 912.936 543.284 916.871 561.751 924.519C580.222 932.164 597.001 943.372 611.137 957.502C625.272 971.631 636.485 988.403 644.133 1006.87C651.784 1025.33 655.721 1045.11 655.721 1065.09H634.548C634.548 1047.89 631.16 1030.86 624.574 1014.96C617.989 999.071 608.336 984.63 596.165 972.467C583.997 960.301 569.55 950.652 553.651 944.07C537.75 937.487 520.71 934.1 503.5 934.1V912.936Z" fill="white"/>
<path d="M503.5 936.345C537.661 936.345 570.421 949.91 594.577 974.054C618.731 998.2 632.302 1030.95 632.302 1065.09H613.572C613.572 1035.91 601.975 1007.93 581.334 987.292C560.691 966.659 532.694 955.067 503.5 955.067V936.345Z" fill="white"/>
<path d="M807.942 304.312C827.932 304.312 847.725 308.247 866.193 315.895C884.664 323.54 901.443 334.748 915.579 348.877C929.714 363.007 940.927 379.779 948.575 398.242C956.226 416.702 960.163 436.487 960.163 456.468H938.99C938.99 439.265 935.601 422.233 929.016 406.339C922.431 390.447 912.778 376.006 900.607 363.843C888.439 351.677 873.992 342.028 858.093 335.446C842.192 328.863 825.152 325.476 807.942 325.476V304.312Z" fill="white"/>
<path d="M807.942 327.721C842.103 327.721 874.863 341.286 899.019 365.43C923.173 389.576 936.744 422.322 936.744 456.468H918.014C918.014 427.287 906.417 399.302 885.776 378.667C865.132 358.035 837.136 346.443 807.942 346.443V327.721Z" fill="white"/>
<path d="M199.058 760.78C219.048 760.78 238.842 764.715 257.31 772.363C275.78 780.008 292.559 791.216 306.695 805.346C320.83 819.475 332.043 836.247 339.692 854.71C347.342 873.17 351.279 892.955 351.279 912.936H330.106C330.106 895.733 326.718 878.701 320.132 862.807C313.547 846.915 303.894 832.474 291.723 820.311C279.555 808.145 265.108 798.496 249.209 791.914C233.309 785.331 216.268 781.944 199.058 781.944V760.78Z" fill="white"/>
<path d="M199.058 784.189C233.219 784.189 265.979 797.754 290.135 821.898C314.289 846.044 327.86 878.79 327.86 912.936H309.13C309.13 883.755 297.533 855.77 276.892 835.136C256.249 814.503 228.251 802.911 199.058 802.911V784.189Z" fill="white"/>
<path d="M351.279 456.468C371.269 456.468 391.063 460.403 409.53 468.051C428.001 475.696 444.78 486.904 458.916 501.033C473.051 515.163 484.264 531.935 491.912 550.398C499.563 568.858 503.5 588.643 503.5 608.624H482.327C482.327 591.421 478.939 574.389 472.353 558.495C465.768 542.603 456.115 528.162 443.944 515.999C431.776 503.833 417.329 494.184 401.43 487.602C385.529 481.019 368.489 477.632 351.279 477.632V456.468Z" fill="white"/>
<path d="M351.279 479.877C385.44 479.877 418.2 493.442 442.356 517.586C466.51 541.732 480.081 574.478 480.081 608.624H461.351C461.351 579.443 449.754 551.458 429.113 530.823C408.47 510.191 380.473 498.599 351.279 498.599V479.877Z" fill="white"/>
<path d="M655.721 760.78C675.711 760.78 695.504 764.715 713.972 772.363C732.443 780.008 749.222 791.216 763.358 805.346C777.493 819.475 788.706 836.247 796.354 854.71C804.005 873.17 807.942 892.955 807.942 912.936H786.769C786.769 895.733 783.38 878.701 776.795 862.807C770.21 846.915 760.557 832.474 748.386 820.311C736.218 808.145 721.771 798.496 705.872 791.914C689.971 785.331 672.931 781.944 655.721 781.944V760.78Z" fill="white"/>
<path d="M655.721 784.189C689.882 784.189 722.642 797.754 746.798 821.898C770.952 846.044 784.523 878.79 784.523 912.936H765.793C765.793 883.755 754.196 855.77 733.555 835.136C712.912 814.503 684.915 802.911 655.721 802.911V784.189Z" fill="white"/>
<path d="M807.942 456.468C827.932 456.468 847.725 460.403 866.193 468.051C884.664 475.696 901.443 486.904 915.579 501.033C929.714 515.163 940.927 531.935 948.575 550.398C956.226 568.858 960.163 588.643 960.163 608.624H938.99C938.99 591.421 935.601 574.389 929.016 558.495C922.431 542.603 912.778 528.162 900.607 515.999C888.439 503.833 873.992 494.184 858.093 487.602C842.192 481.019 825.152 477.632 807.942 477.632V456.468Z" fill="white"/>
<path d="M807.942 479.877C842.103 479.877 874.863 493.442 899.019 517.586C923.173 541.732 936.744 574.478 936.744 608.624H918.014C918.014 579.443 906.417 551.458 885.776 530.823C865.132 510.191 837.136 498.599 807.942 498.599V479.877Z" fill="white"/>
<path d="M199.058 456.468C199.058 436.487 202.995 416.702 210.645 398.242C218.295 379.779 229.508 363.007 243.642 348.877C257.778 334.748 274.557 323.54 293.028 315.895C311.496 308.247 331.289 304.312 351.279 304.312V325.476C334.069 325.476 317.029 328.863 301.128 335.446C285.229 342.028 270.782 351.677 258.614 363.843C246.443 376.006 236.79 390.447 230.205 406.339C223.62 422.233 220.23 439.265 220.23 456.468H199.058Z" fill="white"/>
<path d="M222.477 456.468C222.477 422.322 236.048 389.576 260.202 365.43C284.358 341.286 317.118 327.721 351.279 327.721V346.443C322.085 346.443 294.089 358.035 273.445 378.667C252.804 399.302 241.207 427.287 241.207 456.468H222.477Z" fill="white"/>
<path d="M351.279 152.156C351.279 172.137 347.342 191.923 339.692 210.384C332.043 228.844 320.83 245.617 306.695 259.747C292.559 273.876 275.78 285.084 257.31 292.729C238.842 300.377 219.048 304.312 199.058 304.312V283.148C216.267 283.148 233.309 279.761 249.209 273.179C265.108 266.596 279.555 256.947 291.723 244.782C303.894 232.618 313.547 218.178 320.132 202.285C326.718 186.392 330.106 169.358 330.106 152.156H351.279Z" fill="white"/>
<path d="M327.86 152.156C327.86 186.302 314.289 219.049 290.135 243.194C265.979 267.338 233.219 280.903 199.058 280.903V262.181C228.252 262.181 256.249 250.589 276.892 229.956C297.533 209.322 309.13 181.337 309.13 152.156H327.86Z" fill="white"/>
<path d="M655.721 304.312C655.721 284.33 659.658 264.545 667.308 246.085C674.957 227.624 686.17 210.85 700.305 196.721C714.441 182.592 731.22 171.385 749.69 163.738C768.158 156.092 787.952 152.156 807.942 152.156V173.319C790.732 173.319 773.692 176.707 757.791 183.29C741.892 189.873 727.445 199.522 715.277 211.686C703.106 223.85 693.453 238.29 686.868 254.182C680.282 270.077 676.894 287.109 676.894 304.312H655.721Z" fill="white"/>
<path d="M679.14 304.312C679.14 270.166 692.711 237.42 716.865 213.274C741.021 189.129 773.781 175.565 807.942 175.565V194.286C778.748 194.286 750.751 205.878 730.108 226.512C709.467 247.146 697.87 275.131 697.87 304.312H679.14Z" fill="white"/>
<path d="M655.721 608.624C655.721 588.643 659.658 568.858 667.308 550.398C674.957 531.935 686.17 515.163 700.305 501.033C714.441 486.904 731.22 475.696 749.69 468.051C768.158 460.403 787.952 456.468 807.942 456.468V477.632C790.732 477.632 773.692 481.019 757.791 487.602C741.892 494.184 727.445 503.833 715.277 515.999C703.106 528.162 693.453 542.603 686.868 558.495C680.282 574.389 676.894 591.421 676.894 608.624H655.721Z" fill="white"/>
<path d="M679.14 608.624C679.14 574.478 692.711 541.732 716.865 517.586C741.021 493.442 773.781 479.877 807.942 479.877V498.599C778.748 498.599 750.751 510.191 730.108 530.823C709.467 551.458 697.87 579.443 697.87 608.624H679.14Z" fill="white"/>
<path d="M655.721 760.78C655.721 740.799 659.658 721.014 667.308 702.554C674.957 684.091 686.17 667.319 700.305 653.19C714.441 639.06 731.22 627.852 749.69 620.207C768.158 612.559 787.952 608.624 807.942 608.624V629.788C790.732 629.788 773.692 633.175 757.791 639.758C741.892 646.34 727.445 655.989 715.277 668.155C703.106 680.318 693.453 694.759 686.868 710.651C680.282 726.545 676.894 743.577 676.894 760.78H655.721Z" fill="white"/>
<path d="M679.14 760.78C679.14 726.634 692.711 693.888 716.865 669.742C741.021 645.598 773.781 632.033 807.942 632.033V650.755C778.748 650.755 750.751 662.347 730.108 682.979C709.467 703.614 697.87 731.599 697.87 760.78H679.14Z" fill="white"/>
<path d="M46.8372 760.78C66.827 760.78 86.6214 764.715 105.09 772.363C123.558 780.008 140.339 791.216 154.474 805.346C168.609 819.475 179.821 836.247 187.471 854.71C195.121 873.17 199.058 892.955 199.058 912.936H177.886C177.886 895.733 174.497 878.701 167.911 862.807C161.325 846.915 151.672 832.474 139.503 820.311C127.334 808.145 112.887 798.496 96.9876 791.914C81.088 785.331 64.0468 781.944 46.8372 781.944V760.78Z" fill="white"/>
<path d="M46.8372 784.189C80.9976 784.189 113.759 797.754 137.914 821.898C162.069 846.044 175.639 878.79 175.639 912.936H156.91C156.91 883.755 145.313 855.77 124.671 835.136C104.028 814.503 76.0303 802.911 46.8372 802.911V784.189Z" fill="white"/>
<path d="M46.8372 1065.09C46.8372 1045.11 50.7745 1025.33 58.4242 1006.87C66.0741 988.403 77.2867 971.631 91.4217 957.502C105.557 943.372 122.338 932.164 140.806 924.519C159.274 916.871 179.068 912.936 199.058 912.936V934.1C181.849 934.1 164.807 937.487 148.908 944.07C133.008 950.652 118.562 960.301 106.392 972.467C94.2233 984.63 84.5704 999.071 77.9844 1014.96C71.3986 1030.86 68.009 1047.89 68.009 1065.09H46.8372Z" fill="white"/>
<path d="M70.2559 1065.09C70.2559 1030.95 83.826 998.2 107.981 974.054C132.136 949.91 164.898 936.345 199.058 936.345V955.067C169.865 955.067 141.867 966.659 121.225 987.292C100.582 1007.93 88.9849 1035.91 88.9849 1065.09H70.2559Z" fill="white"/>
<path d="M503.5 760.78C503.5 740.799 507.437 721.014 515.088 702.554C522.736 684.091 533.949 667.319 548.084 653.19C562.22 639.06 578.999 627.852 597.47 620.207C615.937 612.559 635.731 608.624 655.721 608.624V629.788C638.511 629.788 621.471 633.175 605.57 639.758C589.671 646.34 575.224 655.989 563.056 668.155C550.885 680.318 541.232 694.759 534.647 710.651C528.061 726.545 524.673 743.577 524.673 760.78H503.5Z" fill="white"/>
<path d="M526.918 760.78C526.918 726.634 540.49 693.888 564.643 669.742C588.8 645.598 621.56 632.033 655.721 632.033V650.755C626.527 650.755 598.53 662.347 577.887 682.979C557.246 703.614 545.649 731.599 545.649 760.78H526.918Z" fill="white"/>
<path d="M199.058 456.468C199.058 476.45 195.121 496.235 187.471 514.695C179.821 533.157 168.609 549.929 154.474 564.059C140.339 578.188 123.558 589.396 105.09 597.042C86.6214 604.689 66.827 608.624 46.8372 608.624V587.46C64.0468 587.46 81.0878 584.073 96.9874 577.491C112.887 570.908 127.334 561.259 139.503 549.094C151.672 536.931 161.325 522.49 167.911 506.598C174.497 490.703 177.886 473.671 177.886 456.468H199.058Z" fill="white"/>
<path d="M175.639 456.468C175.639 490.614 162.069 523.361 137.914 547.507C113.759 571.65 80.9976 585.216 46.8372 585.216V566.493C76.0303 566.493 104.028 554.901 124.671 534.269C145.314 513.634 156.91 485.649 156.91 456.468H175.639Z" fill="white"/>
<path d="M960.163 152.156C960.163 172.137 956.226 191.923 948.575 210.384C940.927 228.844 929.714 245.617 915.579 259.747C901.443 273.876 884.664 285.084 866.193 292.729C847.725 300.377 827.932 304.312 807.942 304.312V283.148C825.152 283.148 842.192 279.761 858.093 273.179C873.992 266.596 888.439 256.947 900.607 244.782C912.778 232.618 922.431 218.178 929.016 202.285C935.601 186.392 938.99 169.358 938.99 152.156H960.163Z" fill="white"/>
<path d="M936.744 152.156C936.744 186.302 923.173 219.049 899.019 243.194C874.863 267.338 842.103 280.903 807.942 280.903V262.181C837.136 262.181 865.132 250.589 885.776 229.956C906.417 209.322 918.014 181.337 918.014 152.156H936.744Z" fill="white"/>
<path d="M960.163 760.78C960.163 780.762 956.226 800.547 948.575 819.007C940.927 837.469 929.714 854.242 915.579 868.371C901.443 882.5 884.664 893.708 866.193 901.354C847.725 909.001 827.932 912.936 807.942 912.936V891.773C825.152 891.773 842.192 888.385 858.093 881.803C873.992 875.22 888.439 865.571 900.607 853.406C912.778 841.243 922.431 826.802 929.016 810.91C935.601 795.015 938.99 777.983 938.99 760.78H960.163Z" fill="white"/>
<path d="M936.744 760.78C936.744 794.926 923.173 827.673 899.019 851.819C874.863 875.962 842.103 889.528 807.942 889.528V870.806C837.136 870.806 865.132 859.214 885.776 838.581C906.417 817.946 918.014 789.961 918.014 760.78H936.744Z" fill="white"/>
<path d="M807.942 912.936C807.942 932.918 804.005 952.703 796.354 971.163C788.706 989.625 777.493 1006.4 763.358 1020.53C749.222 1034.66 732.443 1045.86 713.972 1053.51C695.504 1061.16 675.711 1065.09 655.721 1065.09V1043.93C672.931 1043.93 689.971 1040.54 705.872 1033.96C721.771 1027.38 736.218 1017.73 748.386 1005.56C760.557 993.399 770.21 978.958 776.795 963.066C783.38 947.171 786.769 930.139 786.769 912.936H807.942Z" fill="white"/>
<path d="M784.523 912.936C784.523 947.082 770.952 979.829 746.798 1003.97C722.642 1028.12 689.882 1041.68 655.721 1041.68V1022.96C684.915 1022.96 712.912 1011.37 733.555 990.737C754.196 970.102 765.793 942.117 765.793 912.936H784.523Z" fill="white"/>
<path d="M655.721 456.468C655.721 476.45 651.784 496.235 644.133 514.695C636.485 533.157 625.272 549.929 611.137 564.059C597.001 578.188 580.222 589.396 561.751 597.042C543.284 604.689 523.49 608.624 503.5 608.624V587.46C520.71 587.46 537.75 584.073 553.651 577.491C569.55 570.908 583.997 561.259 596.165 549.094C608.336 536.931 617.989 522.49 624.574 506.598C631.16 490.703 634.548 473.671 634.548 456.468H655.721Z" fill="white"/>
<path d="M632.302 456.468C632.302 490.614 618.731 523.361 594.577 547.507C570.421 571.65 537.661 585.216 503.5 585.216V566.493C532.694 566.493 560.691 554.901 581.334 534.269C601.975 513.634 613.572 485.649 613.572 456.468H632.302Z" fill="white"/>
<path d="M503.5 608.624C503.5 628.606 499.563 648.391 491.912 666.851C484.264 685.313 473.051 702.086 458.916 716.215C444.78 730.344 428.001 741.552 409.53 749.198C391.063 756.845 371.269 760.78 351.279 760.78V739.617C368.489 739.617 385.529 736.229 401.43 729.647C417.329 723.064 431.776 713.415 443.944 701.25C456.115 689.087 465.768 674.646 472.353 658.754C478.939 642.859 482.327 625.827 482.327 608.624H503.5Z" fill="white"/>
<path d="M480.081 608.624C480.081 642.77 466.51 675.517 442.356 699.663C418.2 723.806 385.44 737.372 351.279 737.372V718.65C380.473 718.65 408.47 707.058 429.113 686.425C449.754 665.79 461.351 637.805 461.351 608.624H480.081Z" fill="white"/>
<path d="M503.5 912.936C503.5 932.918 499.563 952.703 491.912 971.163C484.264 989.625 473.051 1006.4 458.916 1020.53C444.78 1034.66 428.001 1045.86 409.53 1053.51C391.063 1061.16 371.269 1065.09 351.279 1065.09V1043.93C368.489 1043.93 385.529 1040.54 401.43 1033.96C417.329 1027.38 431.776 1017.73 443.944 1005.56C456.115 993.399 465.768 978.958 472.353 963.066C478.939 947.171 482.327 930.139 482.327 912.936H503.5Z" fill="white"/>
<path d="M480.081 912.936C480.081 947.082 466.51 979.829 442.356 1003.97C418.2 1028.12 385.44 1041.68 351.279 1041.68V1022.96C380.473 1022.96 408.47 1011.37 429.113 990.737C449.754 970.102 461.351 942.117 461.351 912.936H480.081Z" fill="white"/>
<path d="M503.5 760.78C503.5 780.762 499.563 800.547 491.912 819.007C484.264 837.469 473.051 854.242 458.916 868.371C444.78 882.5 428.001 893.708 409.53 901.354C391.063 909.001 371.269 912.936 351.279 912.936V891.773C368.489 891.773 385.529 888.385 401.43 881.803C417.329 875.22 431.776 865.571 443.944 853.406C456.115 841.243 465.768 826.802 472.353 810.91C478.939 795.015 482.327 777.983 482.327 760.78H503.5Z" fill="white"/>
<path d="M480.081 760.78C480.081 794.926 466.51 827.673 442.356 851.819C418.2 875.962 385.44 889.528 351.279 889.528V870.806C380.473 870.806 408.47 859.214 429.113 838.581C449.754 817.946 461.351 789.961 461.351 760.78H480.081Z" fill="white"/>
<path d="M46.8372 760.78C46.8372 740.799 50.7745 721.014 58.4242 702.554C66.0741 684.091 77.2867 667.319 91.4217 653.19C105.557 639.06 122.338 627.852 140.806 620.207C159.274 612.559 179.068 608.624 199.058 608.624V629.788C181.849 629.788 164.807 633.175 148.908 639.758C133.008 646.34 118.562 655.989 106.392 668.155C94.2233 680.318 84.5704 694.759 77.9844 710.651C71.3986 726.545 68.009 743.577 68.009 760.78H46.8372Z" fill="white"/>
<path d="M70.2559 760.78C70.2559 726.634 83.826 693.888 107.981 669.742C132.136 645.598 164.898 632.033 199.058 632.033V650.755C169.865 650.755 141.867 662.347 121.225 682.979C100.582 703.614 88.9849 731.599 88.9849 760.78H70.2559Z" fill="white"/>
<path d="M199.058 760.78C199.058 740.799 202.995 721.014 210.645 702.554C218.295 684.091 229.508 667.319 243.642 653.19C257.778 639.06 274.557 627.852 293.028 620.207C311.496 612.559 331.289 608.624 351.279 608.624V629.788C334.069 629.788 317.029 633.175 301.128 639.758C285.229 646.34 270.782 655.989 258.614 668.155C246.443 680.318 236.79 694.759 230.205 710.651C223.62 726.545 220.23 743.577 220.23 760.78H199.058Z" fill="white"/>
<path d="M222.477 760.78C222.477 726.634 236.048 693.888 260.202 669.742C284.358 645.598 317.118 632.033 351.279 632.033V650.755C322.085 650.755 294.089 662.347 273.445 682.979C252.804 703.614 241.207 731.599 241.207 760.78H222.477Z" fill="white"/>
<path d="M351.279 304.312C351.279 284.33 355.216 264.545 362.867 246.085C370.515 227.624 381.728 210.85 395.863 196.721C409.999 182.592 426.778 171.385 445.249 163.738C463.716 156.092 483.51 152.156 503.5 152.156V173.319C486.29 173.319 469.25 176.707 453.349 183.29C437.45 189.873 423.003 199.522 410.835 211.686C398.664 223.85 389.011 238.29 382.426 254.182C375.84 270.077 372.452 287.109 372.452 304.312H351.279Z" fill="white"/>
<path d="M374.698 304.312C374.698 270.166 388.269 237.42 412.423 213.274C436.579 189.129 469.339 175.565 503.5 175.565V194.286C474.306 194.286 446.31 205.878 425.666 226.512C405.025 247.146 393.428 275.131 393.428 304.312H374.698Z" fill="white"/>
<path d="M351.279 456.468C351.279 436.487 355.216 416.702 362.867 398.242C370.515 379.779 381.728 363.007 395.863 348.877C409.999 334.748 426.778 323.54 445.249 315.895C463.716 308.247 483.51 304.312 503.5 304.312V325.476C486.29 325.476 469.25 328.863 453.349 335.446C437.45 342.028 423.003 351.677 410.835 363.843C398.664 376.006 389.011 390.447 382.426 406.339C375.84 422.233 372.452 439.265 372.452 456.468H351.279Z" fill="white"/>
<path d="M374.698 456.468C374.698 422.322 388.269 389.576 412.423 365.43C436.579 341.286 469.339 327.721 503.5 327.721V346.443C474.306 346.443 446.31 358.035 425.666 378.667C405.025 399.302 393.428 427.287 393.428 456.468H374.698Z" fill="white"/>
<path d="M655.721 456.468C635.731 456.468 615.937 452.533 597.47 444.886C578.999 437.24 562.22 426.032 548.084 411.903C533.949 397.773 522.736 381.001 515.088 362.539C507.437 344.079 503.5 324.294 503.5 304.312H524.673C524.673 321.515 528.061 338.547 534.647 354.442C541.232 370.334 550.885 384.775 563.056 396.938C575.224 409.103 589.671 418.752 605.57 425.335C621.471 431.917 638.511 435.304 655.721 435.304V456.468Z" fill="white"/>
<path d="M655.721 433.06C621.56 433.06 588.8 419.494 564.643 395.351C540.49 371.205 526.918 338.458 526.918 304.312H545.649C545.649 333.493 557.246 361.478 577.887 382.113C598.53 402.745 626.527 414.337 655.721 414.337V433.06Z" fill="white"/>
<path d="M960.163 1065.09C940.173 1065.09 920.379 1061.16 901.911 1053.51C883.441 1045.86 866.662 1034.66 852.526 1020.53C838.391 1006.4 827.178 989.625 819.529 971.163C811.879 952.703 807.942 932.918 807.942 912.936H829.115C829.115 930.139 832.503 947.171 839.089 963.066C845.674 978.958 855.327 993.399 867.498 1005.56C879.666 1017.73 894.113 1027.38 910.012 1033.96C925.913 1040.54 942.952 1043.93 960.163 1043.93V1065.09Z" fill="white"/>
<path d="M960.163 1041.68C926.002 1041.68 893.242 1028.12 869.085 1003.97C844.931 979.829 831.36 947.082 831.36 912.936H850.091C850.091 942.117 861.687 970.102 882.329 990.737C902.972 1011.37 930.969 1022.96 960.163 1022.96V1041.68Z" fill="white"/>
<path d="M655.721 152.156C655.721 172.137 651.784 191.923 644.133 210.384C636.485 228.844 625.272 245.617 611.137 259.747C597.001 273.876 580.222 285.084 561.751 292.729C543.284 300.377 523.49 304.312 503.5 304.312V283.148C520.71 283.148 537.75 279.761 553.651 273.179C569.55 266.596 583.997 256.947 596.165 244.782C608.336 232.618 617.989 218.178 624.574 202.285C631.16 186.392 634.548 169.358 634.548 152.156H655.721Z" fill="white"/>
<path d="M632.302 152.156C632.302 186.302 618.731 219.049 594.577 243.194C570.421 267.338 537.661 280.903 503.5 280.903V262.181C532.694 262.181 560.691 250.589 581.334 229.956C601.975 209.322 613.572 181.337 613.572 152.156H632.302Z" fill="white"/>
<path d="M655.721 760.78C655.721 780.762 651.784 800.547 644.133 819.007C636.485 837.469 625.272 854.242 611.137 868.371C597.001 882.5 580.222 893.708 561.751 901.354C543.284 909.001 523.49 912.936 503.5 912.936V891.773C520.71 891.773 537.75 888.385 553.651 881.803C569.55 875.22 583.997 865.571 596.165 853.406C608.336 841.243 617.989 826.802 624.574 810.91C631.16 795.015 634.548 777.983 634.548 760.78H655.721Z" fill="white"/>
<path d="M632.302 760.78C632.302 794.926 618.731 827.673 594.577 851.819C570.421 875.962 537.661 889.528 503.5 889.528V870.806C532.694 870.806 560.691 859.214 581.334 838.581C601.975 817.946 613.572 789.961 613.572 760.78H632.302Z" fill="white"/>
<path d="M807.942 304.312C807.942 324.294 804.005 344.079 796.354 362.539C788.706 381.001 777.493 397.773 763.358 411.903C749.222 426.032 732.443 437.24 713.972 444.886C695.504 452.533 675.711 456.468 655.721 456.468V435.304C672.931 435.304 689.971 431.917 705.872 425.335C721.771 418.752 736.218 409.103 748.386 396.938C760.557 384.775 770.21 370.334 776.795 354.442C783.38 338.547 786.769 321.515 786.769 304.312H807.942Z" fill="white"/>
<path d="M784.523 304.312C784.523 338.458 770.952 371.205 746.798 395.351C722.642 419.494 689.882 433.06 655.721 433.06V414.337C684.915 414.337 712.912 402.745 733.555 382.113C754.196 361.478 765.793 333.493 765.793 304.312H784.523Z" fill="white"/>
<path d="M960.163 608.624C960.163 628.606 956.226 648.391 948.575 666.851C940.927 685.313 929.714 702.086 915.579 716.215C901.443 730.344 884.664 741.552 866.193 749.198C847.725 756.845 827.932 760.78 807.942 760.78V739.617C825.152 739.617 842.192 736.229 858.093 729.647C873.992 723.064 888.439 713.415 900.607 701.25C912.778 689.087 922.431 674.646 929.016 658.754C935.601 642.859 938.99 625.827 938.99 608.624H960.163Z" fill="white"/>
<path d="M936.744 608.624C936.744 642.77 923.173 675.517 899.019 699.663C874.863 723.806 842.103 737.372 807.942 737.372V718.65C837.136 718.65 865.132 707.058 885.776 686.425C906.417 665.79 918.014 637.805 918.014 608.624H936.744Z" fill="white"/>
<path d="M351.279 912.936C351.279 932.918 347.342 952.703 339.692 971.163C332.043 989.625 320.83 1006.4 306.695 1020.53C292.559 1034.66 275.78 1045.86 257.31 1053.51C238.842 1061.16 219.048 1065.09 199.058 1065.09V1043.93C216.268 1043.93 233.309 1040.54 249.209 1033.96C265.108 1027.38 279.555 1017.73 291.723 1005.56C303.894 993.399 313.547 978.958 320.132 963.066C326.718 947.171 330.106 930.139 330.106 912.936H351.279Z" fill="white"/>
<path d="M327.86 912.936C327.86 947.082 314.289 979.829 290.135 1003.97C265.979 1028.12 233.219 1041.68 199.058 1041.68V1022.96C228.252 1022.96 256.249 1011.37 276.892 990.737C297.533 970.102 309.13 942.117 309.13 912.936H327.86Z" fill="white"/>
</svg>
